<?xml version="1.0" encoding="UTF-8" standalone="no"?>
<!DOCTYPE svg PUBLIC "-//W3C//DTD SVG 1.1//EN" "http://www.w3.org/Graphics/SVG/1.1/DTD/svg11.dtd">
<svg version="1.1" xmlns="http://www.w3.org/2000/svg" xmlns:xlink="http://www.w3.org/1999/xlink" preserveAspectRatio="xMidYMid meet" viewBox="131.9862896509548 38.536842773001396 369 346.8745047447292" width="352" height="340.87"><defs><path d="M457.07 126.44C462.75 126.44 467.36 131.05 467.36 136.73C467.36 185.86 467.36 322.99 467.36 372.12C467.36 377.8 462.75 382.41 457.07 382.41C398.56 382.41 233.32 382.41 174.81 382.41C169.13 382.41 164.52 377.8 164.52 372.12C164.52 322.99 164.52 185.86 164.52 136.73C164.52 131.05 169.13 126.44 174.81 126.44C233.32 126.44 398.56 126.44 457.07 126.44Z" id="a9C3btNCT"></path><path d="M156.68 196.23L156.68 304.23" id="hVHYuhTza"></path><path d="M312.47 41.54C299.77 41.54 289.47 51.83 289.47 64.54C289.47 77.24 299.77 87.54 312.47 87.54C325.17 87.54 335.47 77.24 335.47 64.54C335.47 51.83 325.17 41.54 312.47 41.54Z" id="a7IQ0nenXf"></path><path d="M262.37 225.23C243.79 225.23 228.73 240.2 228.73 258.68C228.73 277.16 243.79 292.13 262.37 292.13C280.95 292.13 296.01 277.16 296.01 258.68C296.01 240.2 280.95 225.23 262.37 225.23Z" id="b7dq4r6Ih"></path><path d="M312.47 97.95L312.47 168.42" id="dVbZEFeGy"></path><path d="M208 128L167.69 168.31" id="b1vFENrmHq"></path><path d="M140.49 225.23L140.49 236.94L140.49 279.23" id="b4VJ4DX2MZ"></path><path d="M312.47 59.73C299.77 59.73 289.47 70.03 289.47 82.73C289.47 95.44 299.77 105.73 312.47 105.73C325.17 105.73 335.47 95.44 335.47 82.73C335.47 70.03 325.17 59.73 312.47 59.73Z" id="a6eA3ncMq"></path><path d="M475.28 196.23L475.28 304.23" id="b13dU5sYV1"></path><path d="M492.49 225.23L492.49 236.94L492.49 279.23" id="coUN457yn"></path><path d="M363.37 225.23C344.79 225.23 329.73 240.2 329.73 258.68C329.73 277.16 344.79 292.13 363.37 292.13C381.95 292.13 397.01 277.16 397.01 258.68C397.01 240.2 381.95 225.23 363.37 225.23Z" id="caSIu5vGG"></path></defs><g><g><use xlink:href="#a9C3btNCT" opacity="1" fill="#0e3d7e" fill-opacity="1"></use></g><g><use xlink:href="#hVHYuhTza" opacity="1" fill="#000000" fill-opacity="1"></use><g><use xlink:href="#hVHYuhTza" opacity="1" fill-opacity="0" stroke="#ffa600" stroke-width="17" stroke-opacity="1"></use></g></g><g><use xlink:href="#a7IQ0nenXf" opacity="1" fill="#ffa600" fill-opacity="1"></use><g><use xlink:href="#a7IQ0nenXf" opacity="1" fill-opacity="0" stroke="#ffffff" stroke-width="6" stroke-opacity="1"></use></g></g><g><use xlink:href="#b7dq4r6Ih" opacity="1" fill="#ffa600" fill-opacity="1"></use><g><use xlink:href="#b7dq4r6Ih" opacity="1" fill-opacity="0" stroke="#ffffff" stroke-width="6" stroke-opacity="1"></use></g></g><g><use xlink:href="#dVbZEFeGy" opacity="1" fill="#000000" fill-opacity="1"></use><g><use xlink:href="#dVbZEFeGy" opacity="1" fill-opacity="0" stroke="#0e3d7e" stroke-width="7" stroke-opacity="1"></use></g></g><g><use xlink:href="#b1vFENrmHq" opacity="1" fill="#000000" fill-opacity="1"></use><g><use xlink:href="#b1vFENrmHq" opacity="1" fill-opacity="0" stroke="#0e3d7e" stroke-width="7" stroke-opacity="1"></use></g></g><g><use xlink:href="#b4VJ4DX2MZ" opacity="1" fill="#000000" fill-opacity="1"></use><g><use xlink:href="#b4VJ4DX2MZ" opacity="1" fill-opacity="0" stroke="#0e3d7e" stroke-width="17" stroke-opacity="1"></use></g></g><g><use xlink:href="#a6eA3ncMq" opacity="1" fill="#0e3d7e" fill-opacity="1"></use><g><use xlink:href="#a6eA3ncMq" opacity="1" fill-opacity="0" stroke="#ffffff" stroke-width="6" stroke-opacity="1"></use></g></g><g><use xlink:href="#b13dU5sYV1" opacity="1" fill="#000000" fill-opacity="1"></use><g><use xlink:href="#b13dU5sYV1" opacity="1" fill-opacity="0" stroke="#ffa600" stroke-width="17" stroke-opacity="1"></use></g></g><g><use xlink:href="#coUN457yn" opacity="1" fill="#000000" fill-opacity="1"></use><g><use xlink:href="#coUN457yn" opacity="1" fill-opacity="0" stroke="#0e3d7e" stroke-width="17" stroke-opacity="1"></use></g></g><g><use xlink:href="#caSIu5vGG" opacity="1" fill="#ffa600" fill-opacity="1"></use><g><use xlink:href="#caSIu5vGG" opacity="1" fill-opacity="0" stroke="#ffffff" stroke-width="6" stroke-opacity="1"></use></g></g></g></svg>